<mxfile host="app.diagrams.net" modified="2020-12-15T07:14:08.975Z" agent="5.0 (Windows NT 10.0; Win64; x64) AppleWebKit/537.36 (KHTML, like Gecko) Chrome/87.0.4280.88 Safari/537.36 Edg/87.0.664.60" etag="3EmTX1Y_V7BbwTtaqFHI" version="14.0.1" type="github">
  <diagram id="PMF5EqPgBAG7dnJv7bfa" name="Page-1">
    <mxGraphModel dx="1051" dy="594" grid="1" gridSize="10" guides="1" tooltips="1" connect="1" arrows="1" fold="1" page="1" pageScale="1" pageWidth="827" pageHeight="1169" math="0" shadow="0">
      <root>
        <mxCell id="0" />
        <mxCell id="1" parent="0" />
        <mxCell id="SsWOw2knSKrI-g2fJrSa-7" value="" style="edgeStyle=orthogonalEdgeStyle;rounded=0;orthogonalLoop=1;jettySize=auto;html=1;" edge="1" parent="1" source="SsWOw2knSKrI-g2fJrSa-2" target="SsWOw2knSKrI-g2fJrSa-3">
          <mxGeometry relative="1" as="geometry" />
        </mxCell>
        <mxCell id="SsWOw2knSKrI-g2fJrSa-2" value="用户输入用户名、密码、身份证号、手机号码、电子邮箱" style="rounded=1;whiteSpace=wrap;html=1;" vertex="1" parent="1">
          <mxGeometry x="290" y="210" width="170" height="50" as="geometry" />
        </mxCell>
        <mxCell id="SsWOw2knSKrI-g2fJrSa-9" value="Y" style="edgeStyle=orthogonalEdgeStyle;rounded=0;orthogonalLoop=1;jettySize=auto;html=1;" edge="1" parent="1" source="SsWOw2knSKrI-g2fJrSa-3" target="SsWOw2knSKrI-g2fJrSa-8">
          <mxGeometry x="-0.2" y="15" relative="1" as="geometry">
            <mxPoint as="offset" />
          </mxGeometry>
        </mxCell>
        <mxCell id="SsWOw2knSKrI-g2fJrSa-14" style="edgeStyle=orthogonalEdgeStyle;rounded=0;orthogonalLoop=1;jettySize=auto;html=1;entryX=1;entryY=0.5;entryDx=0;entryDy=0;" edge="1" parent="1" source="SsWOw2knSKrI-g2fJrSa-3" target="SsWOw2knSKrI-g2fJrSa-2">
          <mxGeometry relative="1" as="geometry">
            <Array as="points">
              <mxPoint x="480" y="330" />
              <mxPoint x="480" y="235" />
            </Array>
          </mxGeometry>
        </mxCell>
        <mxCell id="SsWOw2knSKrI-g2fJrSa-15" value="N" style="edgeLabel;html=1;align=center;verticalAlign=middle;resizable=0;points=[];" vertex="1" connectable="0" parent="SsWOw2knSKrI-g2fJrSa-14">
          <mxGeometry x="-0.103" y="3" relative="1" as="geometry">
            <mxPoint x="13" y="-5" as="offset" />
          </mxGeometry>
        </mxCell>
        <mxCell id="SsWOw2knSKrI-g2fJrSa-3" value="所填信息是否合法" style="rhombus;whiteSpace=wrap;html=1;" vertex="1" parent="1">
          <mxGeometry x="300" y="290" width="150" height="80" as="geometry" />
        </mxCell>
        <mxCell id="SsWOw2knSKrI-g2fJrSa-13" value="" style="edgeStyle=orthogonalEdgeStyle;rounded=0;orthogonalLoop=1;jettySize=auto;html=1;" edge="1" parent="1" source="SsWOw2knSKrI-g2fJrSa-8" target="SsWOw2knSKrI-g2fJrSa-12">
          <mxGeometry relative="1" as="geometry" />
        </mxCell>
        <mxCell id="SsWOw2knSKrI-g2fJrSa-8" value="查询数据库" style="whiteSpace=wrap;html=1;" vertex="1" parent="1">
          <mxGeometry x="322.5" y="420" width="105" height="40" as="geometry" />
        </mxCell>
        <mxCell id="SsWOw2knSKrI-g2fJrSa-16" style="edgeStyle=orthogonalEdgeStyle;rounded=0;orthogonalLoop=1;jettySize=auto;html=1;" edge="1" parent="1" source="SsWOw2knSKrI-g2fJrSa-12">
          <mxGeometry relative="1" as="geometry">
            <mxPoint x="480" y="330" as="targetPoint" />
          </mxGeometry>
        </mxCell>
        <mxCell id="SsWOw2knSKrI-g2fJrSa-17" value="Y" style="edgeLabel;html=1;align=center;verticalAlign=middle;resizable=0;points=[];" vertex="1" connectable="0" parent="SsWOw2knSKrI-g2fJrSa-16">
          <mxGeometry x="-0.0229" y="-1" relative="1" as="geometry">
            <mxPoint x="9" y="-13.88" as="offset" />
          </mxGeometry>
        </mxCell>
        <mxCell id="SsWOw2knSKrI-g2fJrSa-20" value="" style="edgeStyle=orthogonalEdgeStyle;rounded=0;orthogonalLoop=1;jettySize=auto;html=1;" edge="1" parent="1" source="SsWOw2knSKrI-g2fJrSa-12" target="SsWOw2knSKrI-g2fJrSa-18">
          <mxGeometry relative="1" as="geometry" />
        </mxCell>
        <mxCell id="SsWOw2knSKrI-g2fJrSa-12" value="信息是否存在" style="rhombus;whiteSpace=wrap;html=1;" vertex="1" parent="1">
          <mxGeometry x="301.87" y="500" width="146.25" height="80" as="geometry" />
        </mxCell>
        <mxCell id="SsWOw2knSKrI-g2fJrSa-18" value="提示注册成功，进入登录界面" style="whiteSpace=wrap;html=1;" vertex="1" parent="1">
          <mxGeometry x="314.99" y="630" width="120" height="50" as="geometry" />
        </mxCell>
        <mxCell id="SsWOw2knSKrI-g2fJrSa-21" value="N" style="text;html=1;strokeColor=none;fillColor=none;align=center;verticalAlign=middle;whiteSpace=wrap;rounded=0;" vertex="1" parent="1">
          <mxGeometry x="374" y="590" width="40" height="20" as="geometry" />
        </mxCell>
      </root>
    </mxGraphModel>
  </diagram>
</mxfile>
